<svg width="136" height="28" viewBox="0 0 136 28" fill="none" xmlns="http://www.w3.org/2000/svg">
	<path d="M36.3866 7.98293C36.89 7.98293 37.3262 7.81514 37.6953 7.47957C38.0645 7.144 38.249 6.69097 38.249 6.1205C38.249 5.53325 38.0645 5.07184 37.6953 4.73627C37.3262 4.4007 36.89 4.23291 36.3866 4.23291C35.8665 4.23291 35.4218 4.4007 35.0527 4.73627C34.6836 5.07184 34.499 5.53325 34.499 6.1205C34.499 6.69097 34.6836 7.144 35.0527 7.47957C35.4218 7.81514 35.8665 7.98293 36.3866 7.98293Z" fill="white"/>
	<path d="M37.9218 23.134V9.97119H34.8765V23.134H37.9218Z" fill="white"/>
	<path d="M44.6859 23.134V12.5131C44.8873 12.4796 45.1977 12.4376 45.6172 12.3873C46.0366 12.337 46.4393 12.3118 46.8252 12.3118C47.3453 12.3118 47.7858 12.3831 48.1465 12.5257C48.5073 12.6683 48.7925 12.8949 49.0022 13.2053C49.212 13.5157 49.363 13.9183 49.4553 14.4133C49.5475 14.9083 49.5937 15.5081 49.5937 16.2128V23.134H52.639V15.7346C52.639 14.8454 52.5509 14.0274 52.3747 13.2808C52.1986 12.5341 51.8965 11.8965 51.4687 11.368C51.0408 10.8395 50.4662 10.4284 49.7447 10.1348C49.0232 9.84115 48.1256 9.69434 47.0517 9.69434C45.9108 9.69434 44.8705 9.76984 43.9309 9.92085C42.9913 10.0719 42.2279 10.2313 41.6406 10.399V23.134H44.6859Z" fill="white"/>
	<path d="M60.5195 23.436C61.2913 23.436 61.9625 23.3563 62.5329 23.1969C63.1034 23.0375 63.5648 22.8823 63.9172 22.7313L63.4138 20.3152C63.1621 20.4158 62.8224 20.5249 62.3945 20.6423C61.9667 20.7598 61.4759 20.8185 60.9222 20.8185C60.1168 20.8185 59.5464 20.592 59.2108 20.139C58.8752 19.686 58.7074 18.9309 58.7074 17.8739V12.5131H63.3887V9.97116H58.7074V5.99463L55.6621 6.49799V17.899C55.6621 18.7715 55.7376 19.5475 55.8886 20.2271C56.0396 20.9066 56.2997 21.4855 56.6688 21.9637C57.038 22.4418 57.5371 22.8068 58.1663 23.0585C58.7955 23.3101 59.5799 23.436 60.5195 23.436Z" fill="white"/>
	<path fill-rule="evenodd" clip-rule="evenodd" d="M73.3238 23.386C72.8875 23.4363 72.4429 23.4615 71.9899 23.4615C70.8322 23.4615 69.8254 23.2895 68.9697 22.9455C68.114 22.6016 67.4093 22.1234 66.8556 21.5109C66.3019 20.8985 65.8909 20.177 65.6224 19.3465C65.354 18.516 65.2197 17.6057 65.2197 16.6158C65.2197 15.4581 65.3917 14.443 65.7357 13.5705C66.0796 12.698 66.5368 11.9723 67.1073 11.3935C67.6778 10.8146 68.3322 10.3784 69.0704 10.0847C69.8087 9.7911 70.5637 9.64429 71.3355 9.64429C73.1476 9.64429 74.5612 10.2064 75.5763 11.3305C76.5914 12.4547 77.099 14.1326 77.099 16.3641C77.099 16.5319 77.0948 16.7207 77.0864 16.9304C77.078 17.1401 77.0654 17.3289 77.0486 17.4967H68.3657C68.4496 18.5537 68.8229 19.3717 69.4857 19.9505C70.1484 20.5294 71.109 20.8188 72.3674 20.8188C73.1057 20.8188 73.781 20.7517 74.3934 20.6175C75.0058 20.4833 75.4882 20.3406 75.8406 20.1896L76.2433 22.6813C76.0755 22.7651 75.8448 22.8532 75.5511 22.9455C75.2575 23.0378 74.9219 23.1217 74.5444 23.1972C74.1669 23.2727 73.76 23.3356 73.3238 23.386ZM68.3909 15.2567H74.0536C74.0536 14.8372 73.9949 14.4387 73.8775 14.0612C73.76 13.6837 73.588 13.3565 73.3615 13.0797C73.135 12.8028 72.8582 12.5847 72.531 12.4253C72.2038 12.2659 71.8137 12.1862 71.3607 12.1862C70.8909 12.1862 70.4798 12.2743 70.1275 12.4505C69.7751 12.6266 69.4773 12.8574 69.234 13.1426C68.9907 13.4278 68.8019 13.755 68.6677 14.1241C68.5335 14.4933 68.4412 14.8708 68.3909 15.2567Z" fill="white"/>
	<path d="M83.0771 23.134V12.5886C83.2281 12.5383 83.4923 12.4796 83.8698 12.4125C84.2474 12.3454 84.6039 12.3118 84.9395 12.3118C85.5267 12.3118 86.0427 12.3579 86.4873 12.4502C86.9319 12.5425 87.2801 12.6306 87.5318 12.7145L88.0603 10.1474C87.9093 10.097 87.7079 10.0425 87.4563 9.98377C87.2046 9.92504 86.9445 9.87471 86.6761 9.83276C86.4076 9.79081 86.1391 9.75726 85.8707 9.73209C85.6022 9.70692 85.3673 9.69434 85.166 9.69434C84.0922 9.69434 83.1148 9.79081 82.2339 9.98377C81.3531 10.1767 80.619 10.3823 80.0317 10.6004V23.134H83.0771Z" fill="white"/>
	<path fill-rule="evenodd" clip-rule="evenodd" d="M97.2122 23.1972C96.2642 23.3398 95.1946 23.4111 94.0033 23.4111C93.2147 23.4111 92.4932 23.3356 91.8389 23.1846C91.1845 23.0336 90.6266 22.7903 90.1652 22.4547C89.7038 22.1192 89.343 21.6829 89.083 21.146C88.8229 20.6091 88.6929 19.9463 88.6929 19.1577C88.6929 18.4027 88.8397 17.7651 89.1333 17.245C89.4269 16.7249 89.8254 16.3012 90.3288 15.974C90.8321 15.6468 91.4152 15.4119 92.078 15.2693C92.7407 15.1267 93.4328 15.0554 94.1543 15.0554C94.4899 15.0554 94.8422 15.0764 95.2114 15.1183C95.5805 15.1602 95.9748 15.2316 96.3942 15.3322V14.8289C96.3942 14.4765 96.3523 14.141 96.2684 13.8222C96.1845 13.5034 96.0377 13.2223 95.828 12.979C95.6182 12.7357 95.3414 12.547 94.9974 12.4128C94.6535 12.2785 94.2214 12.2114 93.7013 12.2114C92.9966 12.2114 92.3506 12.2617 91.7634 12.3624C91.1761 12.4631 90.6979 12.5805 90.3288 12.7148L89.9513 10.2483C90.3372 10.1141 90.8993 9.97986 91.6375 9.84563C92.3758 9.7114 93.1644 9.64429 94.0033 9.64429C95.01 9.64429 95.8573 9.77013 96.5453 10.0218C97.2332 10.2735 97.7827 10.6258 98.1937 11.0789C98.6048 11.5319 98.8984 12.0814 99.0746 12.7274C99.2508 13.3733 99.3389 14.0822 99.3389 14.854V22.8323C98.8691 22.9329 98.1602 23.0546 97.2122 23.1972ZM92.4177 20.5793C92.8707 20.8562 93.4832 20.9946 94.255 20.9946C95.1946 20.9946 95.9077 20.9443 96.3942 20.8436V17.4711C96.2265 17.4208 95.9832 17.3704 95.6644 17.3201C95.3456 17.2698 94.9932 17.2446 94.6073 17.2446C94.2718 17.2446 93.932 17.2698 93.588 17.3201C93.2441 17.3704 92.9337 17.4627 92.6568 17.5969C92.38 17.7312 92.1576 17.9199 91.9899 18.1632C91.8221 18.4065 91.7382 18.7127 91.7382 19.0819C91.7382 19.8033 91.9647 20.3025 92.4177 20.5793Z" fill="white"/>
	<path d="M108.402 23.4615C109.124 23.4615 109.824 23.3943 110.504 23.2601C111.183 23.1259 111.691 22.9749 112.027 22.8071L111.599 20.2903C111.23 20.4413 110.793 20.5671 110.29 20.6678C109.787 20.7685 109.275 20.8188 108.755 20.8188C107.362 20.8188 106.372 20.4371 105.785 19.6737C105.198 18.9103 104.904 17.8742 104.904 16.5655C104.904 15.2064 105.214 14.1535 105.835 13.4069C106.456 12.6602 107.362 12.2869 108.553 12.2869C109.057 12.2869 109.531 12.3373 109.975 12.4379C110.42 12.5386 110.818 12.6644 111.171 12.8154L111.825 10.3238C110.718 9.8708 109.543 9.64429 108.302 9.64429C107.295 9.64429 106.389 9.82046 105.584 10.1728C104.778 10.5252 104.094 11.0117 103.532 11.6326C102.97 12.2534 102.538 12.9874 102.236 13.8347C101.934 14.6821 101.783 15.5923 101.783 16.5655C101.783 17.5554 101.917 18.474 102.186 19.3213C102.454 20.1687 102.861 20.8985 103.407 21.5109C103.952 22.1234 104.64 22.6016 105.47 22.9455C106.301 23.2895 107.278 23.4615 108.402 23.4615Z" fill="white"/>
	<path d="M119.073 23.436C119.845 23.436 120.516 23.3563 121.086 23.1969C121.657 23.0375 122.118 22.8823 122.47 22.7313L121.967 20.3152C121.715 20.4158 121.376 20.5249 120.948 20.6423C120.52 20.7598 120.029 20.8185 119.475 20.8185C118.67 20.8185 118.1 20.592 117.764 20.139C117.428 19.686 117.261 18.9309 117.261 17.8739V12.5131H121.942V9.97116H117.261V5.99463L114.215 6.49799V17.899C114.215 18.7715 114.291 19.5475 114.442 20.2271C114.593 20.9066 114.853 21.4855 115.222 21.9637C115.591 22.4418 116.09 22.8068 116.72 23.0585C117.349 23.3101 118.133 23.436 119.073 23.436Z" fill="white"/>
	<path d="M125.731 27.8404C126.436 27.8404 127.057 27.7607 127.594 27.6013C128.131 27.4419 128.617 27.186 129.053 26.8337C129.49 26.4813 129.884 26.0367 130.236 25.4998C130.589 24.9629 130.933 24.3169 131.268 23.5619C133.064 19.5014 134.641 14.9712 136 9.97119H132.854C132.468 11.5484 132.04 13.1801 131.57 14.8663C131.1 16.5526 130.597 18.1424 130.06 19.6357C129.741 18.9142 129.423 18.134 129.104 17.295C128.785 16.4561 128.483 15.613 128.198 14.7657C127.913 13.9184 127.648 13.0836 127.405 12.2615C127.162 11.4393 126.956 10.6759 126.788 9.97119H123.542C124.23 12.4209 125.014 14.7363 125.895 16.9175C126.776 19.0987 127.694 21.1122 128.651 22.9578C128.315 23.7464 127.925 24.3295 127.48 24.707C127.036 25.0845 126.419 25.2733 125.631 25.2733C125.043 25.2733 124.448 25.1558 123.844 24.9209L123.29 27.3622C123.525 27.4797 123.873 27.5887 124.335 27.6894C124.796 27.7901 125.262 27.8404 125.731 27.8404Z" fill="white"/>
	<path d="M12.7719 16.6343C13.2752 16.6343 13.7115 16.4665 14.0806 16.1309C14.4497 15.7954 14.6343 15.3423 14.6343 14.7719C14.6343 14.1846 14.4497 13.7232 14.0806 13.3876C13.7115 13.0521 13.2752 12.8843 12.7719 12.8843C12.2517 12.8843 11.8071 13.0521 11.438 13.3876C11.0688 13.7232 10.8843 14.1846 10.8843 14.7719C10.8843 15.3423 11.0688 15.7954 11.438 16.1309C11.8071 16.4665 12.2517 16.6343 12.7719 16.6343Z" fill="white"/>
	<path d="M14.0289 2.18276C14.0152 2.1858 13.9988 2.18931 13.9789 2.19337L13.8954 2.20953C13.8367 2.22027 13.7719 2.2309 13.7012 2.24109C13.3923 2.28561 13.0395 2.31243 12.6497 2.31243C12.2626 2.31243 11.9155 2.28593 11.6141 2.2419C11.5094 2.22662 11.4182 2.21032 11.3412 2.19415L11.2587 2.17547C11.0536 2.12015 10.8496 2.24038 10.7969 2.43988L10.7621 2.57163C10.71 2.76904 10.8246 2.97372 11.0227 3.02895L11.0666 3.04039C11.1537 3.06203 11.2767 3.08712 11.4408 3.1124L11.5134 3.12314C11.709 3.15095 11.9222 3.17215 12.1521 3.18483L12.2203 3.18815L12.2204 6.8261C12.2204 7.03145 12.3857 7.20064 12.5931 7.20064H12.7267L12.7488 7.2C12.9457 7.18851 13.0994 7.02412 13.0994 6.8261L13.0993 3.18736C13.382 3.17357 13.6405 3.14726 13.8739 3.1118L13.9597 3.09821C14.1099 3.07336 14.2209 3.04924 14.2926 3.03012C14.492 2.9765 14.6084 2.77269 14.558 2.57506L14.5242 2.44261C14.4751 2.2503 14.2853 2.13032 14.0921 2.16806L14.0289 2.18276Z" fill="white"/>
	<path d="M6.67077 3.62077L6.70627 3.61441C6.78544 3.59985 6.87764 3.58016 6.98171 3.5546C7.28479 3.48017 7.62189 3.37289 7.98335 3.22685C8.34224 3.08185 8.65411 2.92726 8.91713 2.77351C8.99321 2.72903 9.06039 2.6874 9.11847 2.64939L9.21475 2.58388L9.22176 2.57878C9.39114 2.45069 9.62538 2.48572 9.74892 2.65098L9.83062 2.76007C9.95287 2.92358 9.92329 3.15629 9.76028 3.28171L9.72381 3.30879C9.65119 3.36146 9.54659 3.4308 9.40384 3.51573L9.34061 3.55286C9.16967 3.65192 8.97994 3.75144 8.77147 3.84934L8.7095 3.87803L10.0722 7.25104C10.1492 7.44144 10.0593 7.66023 9.867 7.73792L9.74307 7.78799L9.72238 7.79565C9.53549 7.85877 9.3314 7.76392 9.25722 7.58032L7.89413 4.20648C7.62691 4.29963 7.37739 4.37206 7.14769 4.42663L7.06306 4.44616C6.91454 4.47937 6.80255 4.49859 6.72887 4.50775C6.52396 4.5327 6.33963 4.38736 6.31235 4.18523L6.2941 4.04975C6.26756 3.85307 6.39862 3.67071 6.5919 3.63333L6.67077 3.62077Z" fill="white"/>
	<path d="M11.224 27.629L11.2593 27.6216C11.3382 27.6054 11.4311 27.5891 11.5371 27.5738C11.846 27.5293 12.1988 27.5025 12.5886 27.5025C12.9757 27.5025 13.3227 27.529 13.6242 27.573C13.7114 27.5858 13.7893 27.5992 13.8574 27.6127L13.9533 27.6332L13.9796 27.6395C14.1846 27.6948 14.3887 27.5746 14.4413 27.3751L14.4762 27.2433C14.5283 27.0459 14.4137 26.8412 14.2156 26.786L14.1716 26.7746C14.0846 26.7529 13.9616 26.7278 13.7974 26.7025L13.7249 26.6918C13.5293 26.664 13.3161 26.6428 13.0862 26.6301L13.018 26.6267L13.0179 22.9888C13.0179 22.7835 12.8526 22.6143 12.6452 22.6143H12.5116L12.4895 22.6149C12.2926 22.6264 12.1389 22.7908 12.1389 22.9888L12.1389 26.6276C11.8562 26.6414 11.5978 26.6677 11.3643 26.7031L11.2786 26.7167C11.1284 26.7416 11.0174 26.7657 10.9456 26.7848C10.7463 26.8384 10.6298 27.0423 10.6803 27.2399L10.7141 27.3723C10.7632 27.5646 10.953 27.6846 11.1462 27.6469L11.224 27.629Z" fill="white"/>
	<path d="M18.5823 26.1917C18.5684 26.194 18.5519 26.1969 18.532 26.2005L18.4485 26.2168C18.3901 26.2289 18.3259 26.2433 18.2566 26.2603C17.9535 26.3348 17.6164 26.4421 17.2549 26.5881C16.896 26.7331 16.5842 26.8877 16.3212 27.0414C16.2299 27.0948 16.1514 27.1441 16.0861 27.1879L16.0165 27.2362C15.8471 27.3643 15.6129 27.3292 15.4894 27.164L15.4077 27.0549C15.2854 26.8914 15.315 26.6586 15.478 26.5332L15.5145 26.5062C15.5871 26.4535 15.6917 26.3841 15.8344 26.2992L15.8977 26.2621C16.0686 26.163 16.2583 26.0635 16.4668 25.9656L16.5287 25.937L15.166 22.5639C15.0891 22.3735 15.179 22.1547 15.3713 22.077L15.4952 22.027L15.5159 22.0193C15.7028 21.9562 15.9069 22.051 15.9811 22.2346L17.3441 25.6084C17.6114 25.5153 17.8609 25.4429 18.0906 25.3883L18.1752 25.3688C18.3237 25.3356 18.4357 25.3163 18.5094 25.3072C18.7143 25.2822 18.8987 25.4276 18.9259 25.6297L18.9442 25.7652C18.9707 25.9619 18.8397 26.1442 18.6464 26.1816L18.5823 26.1917Z" fill="white"/>
	<path d="M0.0248292 16.2757L0.0322368 16.2404C0.0483948 16.1616 0.0646723 16.0687 0.07996 15.9626C0.12448 15.6537 0.151296 15.301 0.151296 14.9111C0.151296 14.5241 0.124793 14.177 0.0807674 13.8755C0.0680311 13.7883 0.0545903 13.7105 0.0411082 13.6424L0.0233491 13.5583L0.0143333 13.5202C-0.0409842 13.3151 0.0792474 13.1111 0.27875 13.0584L0.410501 13.0235C0.607908 12.9714 0.812592 13.086 0.867815 13.2842L0.879255 13.3281C0.900894 13.4152 0.925992 13.5381 0.951268 13.7023L0.962005 13.7748C0.989818 13.9705 1.01101 14.1836 1.0237 14.4136L1.02704 14.4817L4.66497 14.4819C4.87032 14.4819 5.03951 14.6472 5.03951 14.8545V14.9882L5.03887 15.0103C5.02738 15.2072 4.86299 15.3609 4.66497 15.3609L1.02625 15.3608C1.01244 15.6435 0.986124 15.902 0.950671 16.1354L0.937073 16.2212C0.912228 16.3713 0.888103 16.4824 0.868986 16.5541C0.815367 16.7535 0.611558 16.8699 0.413927 16.8195L0.281473 16.7857C0.0891687 16.7366 -0.0308158 16.5468 0.00692778 16.3535L0.0248292 16.2757Z" fill="white"/>
	<path d="M2.69994 6.91606L2.75504 6.88175C2.76686 6.87422 2.78096 6.86509 2.79783 6.85396L2.8683 6.80634C2.91743 6.7724 2.9708 6.73407 3.02801 6.69127C3.2779 6.50434 3.54629 6.27388 3.82196 5.99821C4.09566 5.72451 4.32234 5.46035 4.50437 5.21606C4.56756 5.13125 4.62054 5.05522 4.66355 4.98935L4.70869 4.91778C4.81456 4.73368 5.04387 4.67441 5.22216 4.77825L5.33999 4.84675C5.51641 4.9495 5.58011 5.17527 5.47907 5.35441L5.45607 5.39358C5.40981 5.47044 5.34061 5.57514 5.2424 5.7091L5.19871 5.76798C5.08006 5.92596 4.94429 6.0917 4.79066 6.26327L4.74475 6.31385L7.31716 8.8863C7.46237 9.03151 7.46512 9.26803 7.31848 9.41467L7.22397 9.50918L7.20792 9.52432C7.06055 9.65544 6.83562 9.64788 6.6956 9.50786L4.12262 6.93487C3.91302 7.12499 3.71164 7.28915 3.52152 7.42913L3.45125 7.48017C3.32751 7.56878 3.23194 7.63023 3.16769 7.66744C2.98882 7.77048 2.76235 7.70872 2.65826 7.53332L2.58853 7.41573C2.48725 7.24506 2.53663 7.02599 2.69994 6.91606Z" fill="white"/>
	<path d="M9.18279 27.2363C9.174 27.2304 9.16407 27.2237 9.15284 27.2163L9.08147 27.17C9.03104 27.138 8.9749 27.1039 8.91315 27.0679C8.64344 26.911 8.32643 26.754 7.96496 26.6079C7.60607 26.4629 7.27435 26.3575 6.97835 26.2854C6.87559 26.2603 6.78491 26.2413 6.70747 26.2274L6.64053 26.2162L6.62394 26.2138C6.41312 26.1883 6.26896 26.0004 6.29488 25.7957L6.31189 25.6605C6.33755 25.4579 6.52047 25.3111 6.72486 25.3341L6.7699 25.3399C6.85873 25.3525 6.98214 25.3753 7.14382 25.4134L7.21509 25.4306C7.40688 25.4781 7.61249 25.5383 7.83045 25.6127L7.89498 25.635L9.25778 22.2621C9.33471 22.0717 9.55135 21.9767 9.74363 22.0544L9.86756 22.1045L9.88776 22.1134C10.066 22.1978 10.147 22.4078 10.0728 22.5914L8.70967 25.9652C8.96659 26.0838 9.19638 26.205 9.39952 26.3254L9.47397 26.3701C9.60388 26.4494 9.69779 26.5133 9.75714 26.5579C9.92188 26.6823 9.95352 26.9149 9.83273 27.0793L9.75174 27.1894C9.63421 27.3493 9.41325 27.3895 9.24825 27.2821L9.18279 27.2363Z" fill="white"/>
	<path d="M2.76764 22.9684L2.79783 22.9881C2.86502 23.0324 2.9422 23.0866 3.02801 23.1508C3.2779 23.3377 3.54629 23.5682 3.82196 23.8438C4.09566 24.1175 4.32234 24.3817 4.50437 24.626L4.56416 24.7078C4.59237 24.7472 4.61804 24.7843 4.64121 24.8189L4.69458 24.9012L4.70869 24.9243C4.81456 25.1084 5.04387 25.1676 5.22216 25.0638L5.33999 24.9953C5.51641 24.8925 5.58011 24.6668 5.47907 24.4876L5.45607 24.4485C5.40981 24.3716 5.34061 24.2669 5.2424 24.1329L5.19871 24.0741C5.08006 23.9161 4.94429 23.7503 4.79066 23.5788L4.7448 23.5281L7.31716 20.9557C7.46237 20.8105 7.46512 20.574 7.31848 20.4274L7.22397 20.3329L7.20792 20.3177C7.06055 20.1866 6.83562 20.1942 6.6956 20.3342L4.12258 22.9072C3.91302 22.7171 3.71164 22.5529 3.52152 22.4129L3.45125 22.3619C3.32751 22.2733 3.23194 22.2118 3.16769 22.1746C2.98882 22.0716 2.76235 22.1333 2.65826 22.3087L2.58853 22.4263C2.48725 22.597 2.53663 22.8161 2.69994 22.926L2.76764 22.9684Z" fill="white"/>
	<path d="M1.46145 8.83786L1.45506 8.87941C1.45276 8.89324 1.44986 8.90978 1.4462 8.92966L1.4299 9.01313C1.41786 9.07162 1.40343 9.13572 1.38639 9.2051C1.31195 9.50817 1.20468 9.84527 1.05864 10.2067C0.913635 10.5656 0.759048 10.8775 0.6053 11.1405C0.560821 11.2166 0.519185 11.2838 0.481177 11.3419L0.433214 11.4132L0.41057 11.4451C0.282472 11.6145 0.317508 11.8488 0.482763 11.9723L0.591852 12.054C0.755372 12.1763 0.98808 12.1467 1.1135 11.9837L1.14057 11.9472C1.19325 11.8746 1.26258 11.77 1.34752 11.6272L1.38464 11.564C1.48371 11.3931 1.58323 11.2033 1.68113 10.9949L1.70982 10.933L5.08282 12.2956C5.27322 12.3726 5.49202 12.2827 5.5697 12.0904L5.61977 11.9665L5.62744 11.9458C5.69056 11.7589 5.59571 11.5548 5.41211 11.4806L2.03827 10.1176C2.13142 9.8503 2.20385 9.60078 2.25842 9.37108L2.27794 9.28645C2.31116 9.13792 2.33038 9.02594 2.33953 8.95226C2.36449 8.74735 2.21915 8.56302 2.01702 8.53574L1.88154 8.51749C1.67729 8.48993 1.48849 8.63232 1.46145 8.83786Z" fill="white"/>
	<path d="M0.40453 18.3889L0.428796 18.4233C0.436741 18.4348 0.446147 18.4487 0.457329 18.4656C0.501852 18.5326 0.551731 18.6126 0.60564 18.7053C0.762628 18.975 0.919631 19.292 1.06567 19.6534C1.21067 20.0123 1.31611 20.3441 1.38822 20.6401C1.40908 20.7257 1.4258 20.8029 1.4388 20.8711L1.45577 20.9677L1.45976 20.9945C1.48528 21.2053 1.6732 21.3495 1.87789 21.3235L2.01312 21.3065C2.21566 21.2809 2.36251 21.0979 2.3395 20.8936L2.33364 20.8485C2.32109 20.7597 2.2983 20.6363 2.26023 20.4746L2.24302 20.4033C2.19553 20.2115 2.13532 20.0059 2.06093 19.788L2.03855 19.7235L5.41149 18.3606C5.60189 18.2837 5.69684 18.0671 5.61915 17.8748L5.56908 17.7509L5.56023 17.7306C5.4758 17.5524 5.2658 17.4714 5.0822 17.5456L1.70841 18.9088C1.60291 18.6803 1.49544 18.4734 1.38836 18.2876L1.34823 18.2189C1.2481 18.0498 1.16835 17.9314 1.11564 17.8613C0.99125 17.6965 0.758653 17.6649 0.594302 17.7857L0.484168 17.8667C0.318097 17.9887 0.281201 18.2223 0.40453 18.3889Z" fill="white"/>
	<path d="M25.2452 16.2757L25.2378 16.2404C25.2216 16.1616 25.2053 16.0687 25.1901 15.9626C25.1455 15.6537 25.1187 15.301 25.1187 14.9111C25.1187 14.5241 25.1452 14.177 25.1893 13.8755C25.202 13.7883 25.2154 13.7105 25.2289 13.6424L25.2467 13.5583L25.2557 13.5202C25.311 13.3151 25.1908 13.1111 24.9913 13.0584L24.8595 13.0235C24.6621 12.9714 24.4574 13.086 24.4022 13.2842L24.3908 13.3281C24.3691 13.4152 24.344 13.5381 24.3188 13.7023L24.308 13.7748C24.2802 13.9705 24.259 14.1836 24.2463 14.4136L24.243 14.4818L20.6051 14.4819C20.3997 14.4819 20.2305 14.6472 20.2305 14.8545V14.9882L20.2312 15.0103C20.2426 15.2072 20.407 15.3609 20.6051 15.3609L24.2438 15.3608C24.2576 15.6435 24.2839 15.902 24.3193 16.1354L24.3329 16.2212C24.3578 16.3713 24.3819 16.4824 24.401 16.5541C24.4547 16.7535 24.6585 16.8699 24.8561 16.8195L24.9885 16.7857C25.1809 16.7366 25.3008 16.5468 25.2631 16.3535L25.2452 16.2757Z" fill="white"/>
	<path d="M22.5024 22.9684L22.4722 22.9881C22.405 23.0324 22.3278 23.0866 22.242 23.1508C21.9921 23.3377 21.7237 23.5682 21.4481 23.8438C21.1744 24.1175 20.9477 24.3817 20.7657 24.626L20.7059 24.7078C20.6777 24.7472 20.652 24.7843 20.6288 24.8189L20.5658 24.9168L20.5613 24.9243C20.4555 25.1084 20.2262 25.1676 20.0479 25.0638L19.93 24.9953C19.7536 24.8925 19.6899 24.6668 19.791 24.4876L19.8139 24.4485C19.8602 24.3716 19.9294 24.2669 20.0276 24.1329L20.0713 24.0741C20.19 23.9161 20.3257 23.7503 20.4794 23.5788L20.5252 23.5281L17.9529 20.9557C17.8077 20.8105 17.8049 20.574 17.9515 20.4274L18.0461 20.3329L18.0621 20.3177C18.2095 20.1866 18.4344 20.1942 18.5744 20.3342L21.1474 22.9072C21.357 22.7171 21.5584 22.5529 21.7485 22.4129L21.8188 22.3619C21.9425 22.2733 22.0381 22.2118 22.1023 22.1746C22.2812 22.0716 22.5077 22.1333 22.6118 22.3087L22.6815 22.4263C22.7828 22.597 22.7334 22.8161 22.5701 22.926L22.5024 22.9684Z" fill="white"/>
	<path d="M24.8655 18.3889L24.8412 18.4233C24.8333 18.4348 24.8239 18.4487 24.8127 18.4656C24.7682 18.5326 24.7183 18.6126 24.6644 18.7053C24.5074 18.975 24.3504 19.292 24.2043 19.6534C24.0593 20.0123 23.9539 20.3441 23.8818 20.6401C23.8609 20.7257 23.8442 20.8029 23.8312 20.8711L23.8142 20.9677L23.8103 20.9945C23.7847 21.2053 23.5968 21.3495 23.3921 21.3235L23.2569 21.3065C23.0544 21.2809 22.9075 21.0979 22.9305 20.8936L22.9364 20.8485C22.9489 20.7597 22.9717 20.6363 23.0098 20.4746L23.027 20.4033C23.0745 20.2115 23.1347 20.0059 23.2091 19.788L23.2315 19.7235L19.8585 18.3606C19.6681 18.2837 19.5732 18.0671 19.6509 17.8748L19.7009 17.7509L19.7098 17.7306C19.7942 17.5524 20.0042 17.4714 20.1878 17.5456L23.5616 18.9088C23.6671 18.6803 23.7746 18.4734 23.8817 18.2876L23.9218 18.2189C24.0219 18.0498 24.1017 17.9314 24.1544 17.8613C24.2788 17.6965 24.5114 17.6649 24.6757 17.7857L24.7859 17.8667C24.9519 17.9887 24.9888 18.2223 24.8655 18.3889Z" fill="white"/>
	<path d="M19.6098 1.25857L19.5309 1.24601L19.4954 1.23966C19.4162 1.2251 19.324 1.2054 19.2199 1.17984C18.9169 1.10541 18.5798 0.998135 18.2183 0.852092C17.8594 0.707092 17.5476 0.552505 17.2845 0.398757C17.2084 0.354278 17.1413 0.312642 17.0832 0.274634L17.0019 0.219717L16.9799 0.204027C16.8105 0.0759293 16.5763 0.110965 16.4527 0.27622L16.371 0.38531C16.2488 0.548829 16.2784 0.781537 16.4414 0.906957L16.4779 0.934032C16.5505 0.986708 16.6551 1.05604 16.7978 1.14098L16.861 1.1781C17.032 1.27717 17.2217 1.37668 17.4302 1.47459L17.4921 1.50326L16.1294 4.87628C16.0525 5.06668 16.1424 5.28547 16.3347 5.36316L16.4586 5.41323L16.4793 5.4209C16.6662 5.48401 16.8703 5.38917 16.9444 5.20557L18.3075 1.8317C18.5748 1.92488 18.8243 1.99731 19.054 2.05188L19.1386 2.0714C19.2871 2.10461 19.3991 2.12384 19.4728 2.13299C19.6777 2.15795 19.862 2.01261 19.8893 1.81048L19.9076 1.67499C19.9341 1.47831 19.803 1.29595 19.6098 1.25857Z" fill="white"/>
	<path d="M23.8612 1.68033C23.8687 1.69216 23.8778 1.70625 23.889 1.72313L23.9366 1.79359C23.9705 1.84272 24.0089 1.89609 24.0516 1.9533C24.2386 2.2032 24.469 2.47158 24.7447 2.74725C25.0184 3.02095 25.2826 3.24763 25.5269 3.42966C25.6117 3.49285 25.6877 3.54583 25.7536 3.58884L25.8251 3.63399C26.0092 3.73985 26.0685 3.96916 25.9647 4.14745L25.8962 4.26528C25.7934 4.44171 25.5677 4.50541 25.3885 4.40436L25.3493 4.38137C25.2725 4.33511 25.1678 4.26591 25.0338 4.16769L24.9749 4.124C24.817 4.00535 24.6512 3.86959 24.4796 3.71595L24.4291 3.67008L21.8566 6.24245C21.7114 6.38766 21.4749 6.39041 21.3283 6.24377L21.2337 6.14926L21.2186 6.13321C21.0875 5.98584 21.095 5.76091 21.2351 5.62089L23.8081 3.04795C23.6179 2.83831 23.4538 2.63693 23.3138 2.44681L23.2627 2.37654C23.1741 2.2528 23.1127 2.15723 23.0755 2.09298C22.9724 1.91412 23.0342 1.68765 23.2096 1.58356L23.3272 1.51382C23.4979 1.41254 23.7169 1.46193 23.8269 1.62524L23.8612 1.68033Z" fill="white"/>
	<path d="M26.5128 8.00403C26.5146 8.0145 26.5167 8.02627 26.5191 8.03953L26.5354 8.123C26.5475 8.18148 26.5619 8.24558 26.5789 8.31497C26.6534 8.61804 26.7607 8.95514 26.9067 9.31661C27.0517 9.67549 27.2063 9.98736 27.36 10.2504C27.4134 10.3417 27.4627 10.4202 27.5065 10.4855L27.5548 10.555C27.6829 10.7244 27.6478 10.9586 27.4826 11.0822L27.3735 11.1639C27.21 11.2861 26.9773 11.2565 26.8518 11.0935L26.8248 11.0571C26.7721 10.9844 26.7027 10.8798 26.6178 10.7371L26.5807 10.6739C26.4816 10.5029 26.3821 10.3132 26.2842 10.1047L26.2555 10.0428L22.8825 11.4055C22.6921 11.4824 22.4733 11.3925 22.3956 11.2003L22.3456 11.0763L22.3379 11.0556C22.2748 10.8687 22.3696 10.6647 22.5532 10.5905L25.927 9.22742C25.8339 8.96016 25.7615 8.71065 25.7069 8.48094L25.6874 8.39632C25.6542 8.24779 25.635 8.13581 25.6258 8.06212C25.6008 7.85722 25.7462 7.67288 25.9483 7.6456L26.0838 7.62736C26.2805 7.60081 26.4628 7.73187 26.5002 7.92515L26.5128 8.00403Z" fill="white"/>
</svg>
