<?xml version="1.0" encoding="utf-8"?>
<svg width="41.272" height="41.117" viewBox="44.475 80.288 41.272 41.117" xmlns="http://www.w3.org/2000/svg">
  <path d="M 63.552 104.946 C 64.304 104.946 64.955 104.696 65.507 104.194 C 66.058 103.693 66.334 103.016 66.334 102.164 C 66.334 101.287 66.058 100.598 65.507 100.097 C 64.955 99.595 64.304 99.345 63.552 99.345 C 62.775 99.345 62.111 99.595 61.559 100.097 C 61.008 100.598 60.732 101.287 60.732 102.164 C 60.732 103.016 61.008 103.693 61.559 104.194 C 62.111 104.696 62.775 104.946 63.552 104.946 Z" fill="#2990FB"/>
  <path d="M 65.432 83.359 C 65.412 83.364 65.387 83.369 65.357 83.375 L 65.233 83.399 C 65.145 83.415 65.048 83.431 64.942 83.447 C 64.481 83.513 63.954 83.553 63.372 83.553 C 62.794 83.553 62.275 83.514 61.825 83.448 C 61.669 83.425 61.532 83.401 61.417 83.376 L 61.294 83.349 C 60.988 83.266 60.683 83.446 60.604 83.743 L 60.552 83.94 C 60.475 84.235 60.646 84.541 60.942 84.623 L 61.007 84.64 C 61.137 84.673 61.321 84.71 61.566 84.748 L 61.675 84.764 C 61.967 84.806 62.285 84.837 62.629 84.856 L 62.731 84.861 L 62.731 90.295 C 62.731 90.602 62.978 90.855 63.287 90.855 L 63.487 90.855 L 63.52 90.854 C 63.814 90.837 64.044 90.591 64.044 90.295 L 64.044 84.86 C 64.466 84.839 64.852 84.8 65.201 84.747 L 65.329 84.727 C 65.553 84.69 65.719 84.654 65.826 84.625 C 66.124 84.545 66.298 84.241 66.222 83.945 L 66.172 83.748 C 66.099 83.46 65.815 83.281 65.526 83.337 L 65.432 83.359 Z" fill="#2990FB"/>
  <path d="M 54.44 85.507 L 54.493 85.498 C 54.611 85.476 54.749 85.446 54.905 85.408 C 55.357 85.297 55.861 85.137 56.401 84.919 C 56.937 84.702 57.403 84.471 57.796 84.242 C 57.909 84.175 58.01 84.113 58.096 84.056 L 58.24 83.958 L 58.251 83.951 C 58.504 83.759 58.853 83.812 59.038 84.059 L 59.16 84.222 C 59.343 84.466 59.298 84.813 59.055 85.001 L 59 85.041 C 58.892 85.12 58.736 85.223 58.523 85.35 L 58.428 85.406 C 58.173 85.554 57.889 85.702 57.578 85.849 L 57.485 85.891 L 59.521 90.93 C 59.636 91.214 59.502 91.541 59.214 91.657 L 59.029 91.732 L 58.998 91.743 C 58.719 91.837 58.414 91.696 58.304 91.422 L 56.267 86.382 C 55.868 86.521 55.496 86.629 55.153 86.711 L 55.026 86.74 C 54.804 86.79 54.637 86.818 54.527 86.832 C 54.221 86.869 53.946 86.652 53.905 86.35 L 53.878 86.148 C 53.838 85.854 54.034 85.582 54.322 85.526 L 54.44 85.507 Z" fill="#2990FB"/>
  <path d="M 61.239 121.369 L 61.292 121.358 C 61.41 121.333 61.548 121.309 61.707 121.286 C 62.168 121.22 62.695 121.18 63.277 121.18 C 63.856 121.18 64.374 121.219 64.824 121.285 C 64.955 121.304 65.071 121.324 65.173 121.344 L 65.316 121.375 L 65.355 121.384 C 65.661 121.467 65.966 121.287 66.045 120.989 L 66.097 120.793 C 66.175 120.498 66.004 120.192 65.708 120.11 L 65.642 120.092 C 65.512 120.06 65.328 120.023 65.083 119.985 L 64.975 119.969 C 64.682 119.927 64.364 119.896 64.021 119.877 L 63.919 119.872 L 63.919 114.438 C 63.919 114.131 63.672 113.878 63.362 113.878 L 63.162 113.878 L 63.129 113.879 C 62.835 113.896 62.606 114.142 62.606 114.438 L 62.606 119.873 C 62.183 119.893 61.797 119.933 61.449 119.986 L 61.321 120.006 C 61.096 120.043 60.93 120.079 60.823 120.108 C 60.526 120.188 60.352 120.492 60.427 120.787 L 60.477 120.985 C 60.551 121.273 60.834 121.452 61.123 121.395 L 61.239 121.369 Z" fill="#2990FB"/>
  <path d="M 72.232 119.222 C 72.211 119.225 72.187 119.229 72.157 119.235 L 72.032 119.259 C 71.945 119.277 71.849 119.299 71.746 119.324 C 71.293 119.435 70.789 119.596 70.25 119.814 C 69.713 120.03 69.248 120.261 68.855 120.491 C 68.718 120.571 68.601 120.644 68.504 120.71 L 68.4 120.782 C 68.147 120.973 67.797 120.921 67.612 120.674 L 67.49 120.511 C 67.308 120.267 67.352 119.919 67.595 119.732 L 67.65 119.691 C 67.758 119.613 67.915 119.509 68.128 119.382 L 68.222 119.327 C 68.478 119.179 68.761 119.03 69.072 118.884 L 69.165 118.841 L 67.129 113.803 C 67.014 113.518 67.149 113.192 67.436 113.075 L 67.621 113.001 L 67.652 112.989 C 67.931 112.895 68.236 113.037 68.347 113.311 L 70.383 118.35 C 70.782 118.211 71.155 118.103 71.498 118.022 L 71.624 117.992 C 71.846 117.943 72.013 117.914 72.123 117.9 C 72.429 117.863 72.705 118.08 72.745 118.382 L 72.773 118.584 C 72.812 118.878 72.617 119.151 72.328 119.207 L 72.232 119.222 Z" fill="#2990FB"/>
  <path d="M 44.512 104.41 L 44.523 104.358 C 44.547 104.24 44.572 104.101 44.594 103.943 C 44.661 103.481 44.701 102.954 44.701 102.372 C 44.701 101.794 44.661 101.275 44.596 100.825 C 44.577 100.695 44.557 100.578 44.536 100.477 L 44.51 100.351 L 44.496 100.294 C 44.414 99.988 44.593 99.683 44.891 99.605 L 45.088 99.552 C 45.383 99.475 45.689 99.646 45.771 99.942 L 45.788 100.007 C 45.821 100.137 45.858 100.321 45.896 100.566 L 45.912 100.675 C 45.954 100.967 45.985 101.285 46.004 101.629 L 46.009 101.731 L 51.443 101.731 C 51.75 101.731 52.003 101.978 52.003 102.287 L 52.003 102.487 L 52.002 102.52 C 51.984 102.814 51.739 103.044 51.443 103.044 L 46.008 103.044 C 45.987 103.466 45.948 103.852 45.895 104.201 L 45.875 104.329 C 45.838 104.553 45.802 104.719 45.773 104.826 C 45.693 105.124 45.389 105.298 45.093 105.222 L 44.895 105.172 C 44.608 105.099 44.429 104.815 44.485 104.526 L 44.512 104.41 Z" fill="#2990FB"/>
  <path d="M 48.507 90.43 L 48.589 90.379 C 48.607 90.367 48.628 90.354 48.653 90.337 L 48.758 90.266 C 48.832 90.215 48.912 90.158 48.997 90.094 C 49.37 89.815 49.771 89.471 50.183 89.059 C 50.592 88.65 50.93 88.255 51.202 87.891 C 51.297 87.764 51.376 87.65 51.44 87.552 L 51.507 87.445 C 51.666 87.17 52.008 87.081 52.274 87.237 L 52.45 87.339 C 52.714 87.492 52.809 87.83 52.658 88.097 L 52.624 88.156 C 52.555 88.271 52.451 88.427 52.305 88.627 L 52.239 88.715 C 52.062 88.951 51.859 89.199 51.63 89.455 L 51.561 89.53 L 55.404 93.373 C 55.621 93.59 55.625 93.943 55.406 94.162 L 55.264 94.303 L 55.241 94.326 C 55.02 94.522 54.684 94.51 54.475 94.301 L 50.632 90.458 C 50.319 90.742 50.018 90.987 49.734 91.196 L 49.629 91.272 C 49.444 91.405 49.302 91.497 49.206 91.552 C 48.938 91.706 48.6 91.614 48.445 91.352 L 48.341 91.176 C 48.189 90.921 48.263 90.594 48.507 90.43 Z" fill="#2990FB"/>
  <path d="M 58.19 120.782 C 58.177 120.773 58.162 120.763 58.145 120.752 L 58.039 120.683 C 57.963 120.635 57.88 120.584 57.787 120.531 C 57.384 120.296 56.911 120.062 56.371 119.843 C 55.835 119.627 55.339 119.469 54.897 119.362 C 54.744 119.324 54.608 119.296 54.493 119.275 L 54.393 119.258 L 54.368 119.255 C 54.053 119.217 53.838 118.936 53.876 118.63 L 53.902 118.428 C 53.94 118.126 54.213 117.906 54.519 117.941 L 54.586 117.949 C 54.719 117.968 54.903 118.002 55.144 118.059 L 55.251 118.085 C 55.537 118.156 55.844 118.246 56.17 118.357 L 56.266 118.39 L 58.302 113.352 C 58.417 113.068 58.741 112.926 59.028 113.042 L 59.213 113.117 L 59.243 113.13 C 59.509 113.256 59.63 113.57 59.519 113.844 L 57.483 118.883 C 57.867 119.061 58.21 119.242 58.514 119.421 L 58.625 119.488 C 58.819 119.607 58.959 119.702 59.048 119.769 C 59.294 119.955 59.341 120.302 59.161 120.548 L 59.04 120.712 C 58.864 120.951 58.534 121.011 58.288 120.85 L 58.19 120.782 Z" fill="#2990FB"/>
  <path d="M 48.608 114.407 L 48.653 114.436 C 48.754 114.503 48.869 114.583 48.997 114.679 C 49.37 114.959 49.771 115.303 50.183 115.715 C 50.592 116.123 50.93 116.518 51.202 116.883 L 51.292 117.005 C 51.334 117.064 51.372 117.119 51.407 117.171 L 51.486 117.294 L 51.507 117.328 C 51.666 117.603 52.008 117.692 52.274 117.537 L 52.45 117.435 C 52.714 117.281 52.809 116.944 52.658 116.676 L 52.624 116.618 C 52.555 116.503 52.451 116.347 52.305 116.146 L 52.239 116.058 C 52.062 115.823 51.859 115.575 51.63 115.319 L 51.561 115.243 L 55.404 111.401 C 55.621 111.184 55.625 110.83 55.406 110.611 L 55.264 110.47 L 55.241 110.448 C 55.02 110.252 54.684 110.263 54.475 110.472 L 50.632 114.316 C 50.319 114.032 50.018 113.786 49.734 113.577 L 49.629 113.501 C 49.444 113.369 49.302 113.277 49.206 113.221 C 48.938 113.067 48.6 113.16 48.445 113.422 L 48.341 113.597 C 48.189 113.852 48.263 114.179 48.507 114.344 L 48.608 114.407 Z" fill="#2990FB"/>
  <path d="M 46.657 93.3 L 46.648 93.363 C 46.644 93.383 46.64 93.408 46.635 93.438 L 46.61 93.562 C 46.592 93.65 46.571 93.745 46.545 93.849 C 46.434 94.302 46.274 94.805 46.056 95.345 C 45.839 95.881 45.608 96.347 45.379 96.74 C 45.312 96.854 45.25 96.954 45.193 97.041 L 45.122 97.147 L 45.088 97.195 C 44.896 97.448 44.949 97.798 45.196 97.982 L 45.359 98.104 C 45.603 98.287 45.95 98.243 46.138 97.999 L 46.178 97.945 C 46.257 97.836 46.36 97.68 46.487 97.467 L 46.543 97.372 C 46.691 97.117 46.839 96.834 46.986 96.522 L 47.028 96.43 L 52.067 98.465 C 52.351 98.58 52.678 98.446 52.794 98.159 L 52.869 97.974 L 52.88 97.943 C 52.974 97.664 52.833 97.359 52.559 97.248 L 47.519 95.212 C 47.658 94.813 47.766 94.44 47.848 94.097 L 47.877 93.971 C 47.927 93.749 47.955 93.581 47.969 93.471 C 48.006 93.165 47.789 92.89 47.487 92.849 L 47.285 92.822 C 46.98 92.781 46.698 92.993 46.657 93.3 Z" fill="#2990FB"/>
  <path d="M 45.079 107.567 L 45.115 107.618 C 45.127 107.635 45.141 107.656 45.158 107.681 C 45.224 107.781 45.299 107.901 45.379 108.039 C 45.614 108.442 45.849 108.916 46.067 109.456 C 46.283 109.992 46.441 110.487 46.548 110.929 C 46.58 111.057 46.605 111.173 46.624 111.274 L 46.649 111.419 L 46.655 111.459 C 46.693 111.774 46.974 111.989 47.28 111.95 L 47.482 111.925 C 47.784 111.886 48.004 111.613 47.969 111.308 L 47.961 111.241 C 47.942 111.108 47.908 110.924 47.851 110.682 L 47.825 110.576 C 47.754 110.289 47.664 109.982 47.553 109.657 L 47.52 109.56 L 52.558 107.525 C 52.842 107.41 52.984 107.086 52.868 106.799 L 52.793 106.614 L 52.78 106.584 C 52.654 106.317 52.34 106.196 52.066 106.307 L 47.027 108.343 C 46.869 108.002 46.709 107.693 46.549 107.415 L 46.489 107.313 C 46.339 107.06 46.22 106.883 46.141 106.779 C 45.955 106.533 45.608 106.485 45.363 106.666 L 45.198 106.787 C 44.95 106.969 44.895 107.318 45.079 107.567 Z" fill="#2990FB"/>
  <path d="M 82.184 104.41 L 82.173 104.358 C 82.149 104.24 82.125 104.101 82.102 103.943 C 82.035 103.481 81.995 102.954 81.995 102.372 C 81.995 101.794 82.035 101.275 82.1 100.825 C 82.12 100.695 82.14 100.578 82.16 100.477 L 82.186 100.351 L 82.2 100.294 C 82.282 99.988 82.103 99.683 81.805 99.605 L 81.608 99.552 C 81.313 99.475 81.007 99.646 80.925 99.942 L 80.908 100.007 C 80.875 100.137 80.838 100.321 80.8 100.566 L 80.784 100.675 C 80.743 100.967 80.711 101.285 80.692 101.629 L 80.687 101.731 L 75.253 101.731 C 74.946 101.731 74.694 101.978 74.694 102.287 L 74.694 102.487 L 74.695 102.52 C 74.712 102.814 74.957 103.044 75.253 103.044 L 80.688 103.044 C 80.709 103.466 80.748 103.852 80.801 104.201 L 80.821 104.329 C 80.859 104.553 80.895 104.719 80.923 104.826 C 81.003 105.124 81.308 105.298 81.603 105.222 L 81.801 105.172 C 82.088 105.099 82.267 104.815 82.211 104.526 L 82.184 104.41 Z" fill="#2990FB"/>
  <path d="M 78.085 114.407 L 78.039 114.436 C 77.939 114.503 77.824 114.583 77.696 114.679 C 77.322 114.959 76.921 115.303 76.51 115.715 C 76.101 116.123 75.762 116.518 75.49 116.883 L 75.401 117.005 C 75.359 117.064 75.321 117.119 75.286 117.171 L 75.192 117.317 L 75.185 117.328 C 75.027 117.603 74.685 117.692 74.418 117.537 L 74.242 117.435 C 73.979 117.281 73.884 116.944 74.034 116.676 L 74.069 116.618 C 74.138 116.503 74.241 116.347 74.388 116.146 L 74.453 116.058 C 74.63 115.823 74.833 115.575 75.063 115.319 L 75.131 115.243 L 71.289 111.401 C 71.072 111.184 71.068 110.83 71.287 110.611 L 71.428 110.47 L 71.452 110.448 C 71.672 110.252 72.008 110.263 72.217 110.472 L 76.061 114.316 C 76.374 114.032 76.674 113.786 76.958 113.577 L 77.063 113.501 C 77.248 113.369 77.391 113.277 77.487 113.221 C 77.754 113.067 78.092 113.16 78.248 113.422 L 78.352 113.597 C 78.503 113.852 78.43 114.179 78.186 114.344 L 78.085 114.407 Z" fill="#2990FB"/>
  <path d="M 81.617 107.567 L 81.58 107.618 C 81.569 107.635 81.555 107.656 81.538 107.681 C 81.471 107.781 81.397 107.901 81.316 108.039 C 81.082 108.442 80.847 108.916 80.629 109.456 C 80.413 109.992 80.255 110.487 80.147 110.929 C 80.116 111.057 80.091 111.173 80.072 111.274 L 80.046 111.419 L 80.04 111.459 C 80.002 111.774 79.722 111.989 79.416 111.95 L 79.214 111.925 C 78.911 111.886 78.692 111.613 78.726 111.308 L 78.735 111.241 C 78.754 111.108 78.788 110.924 78.845 110.682 L 78.871 110.576 C 78.941 110.289 79.031 109.982 79.143 109.657 L 79.176 109.56 L 74.138 107.525 C 73.853 107.41 73.712 107.086 73.828 106.799 L 73.902 106.614 L 73.916 106.584 C 74.042 106.317 74.355 106.196 74.63 106.307 L 79.669 108.343 C 79.827 108.002 79.987 107.693 80.147 107.415 L 80.207 107.313 C 80.357 107.06 80.476 106.883 80.555 106.779 C 80.74 106.533 81.088 106.485 81.333 106.666 L 81.498 106.787 C 81.746 106.969 81.801 107.318 81.617 107.567 Z" fill="#2990FB"/>
  <path d="M 73.764 81.979 L 73.647 81.96 L 73.594 81.951 C 73.475 81.929 73.338 81.9 73.182 81.861 C 72.729 81.75 72.226 81.59 71.686 81.372 C 71.15 81.155 70.684 80.924 70.291 80.695 C 70.178 80.628 70.077 80.566 69.991 80.509 L 69.869 80.427 L 69.836 80.404 C 69.583 80.213 69.233 80.265 69.049 80.512 L 68.927 80.675 C 68.744 80.919 68.788 81.266 69.032 81.454 L 69.086 81.494 C 69.195 81.573 69.351 81.677 69.564 81.803 L 69.659 81.859 C 69.914 82.007 70.197 82.155 70.509 82.302 L 70.601 82.345 L 68.566 87.383 C 68.451 87.667 68.585 87.994 68.872 88.11 L 69.058 88.185 L 69.088 88.196 C 69.368 88.291 69.672 88.149 69.783 87.875 L 71.819 82.835 C 72.218 82.974 72.591 83.082 72.934 83.164 L 73.061 83.193 C 73.283 83.243 73.45 83.271 73.56 83.285 C 73.866 83.322 74.141 83.105 74.182 82.803 L 74.209 82.601 C 74.249 82.307 74.053 82.035 73.764 81.979 Z" fill="#2990FB"/>
  <path d="M 80.117 82.609 C 80.129 82.627 80.142 82.648 80.159 82.673 L 80.23 82.779 C 80.281 82.852 80.338 82.932 80.402 83.017 C 80.681 83.39 81.025 83.791 81.437 84.203 C 81.846 84.612 82.24 84.951 82.605 85.222 C 82.732 85.317 82.846 85.396 82.944 85.46 L 83.051 85.528 C 83.326 85.686 83.414 86.028 83.259 86.295 L 83.157 86.471 C 83.004 86.734 82.666 86.829 82.399 86.678 L 82.34 86.644 C 82.225 86.575 82.069 86.472 81.869 86.325 L 81.781 86.26 C 81.545 86.082 81.297 85.88 81.041 85.65 L 80.966 85.582 L 77.123 89.424 C 76.906 89.641 76.553 89.645 76.334 89.426 L 76.193 89.285 L 76.17 89.261 C 75.974 89.041 75.986 88.705 76.195 88.495 L 80.038 84.652 C 79.754 84.339 79.509 84.038 79.3 83.754 L 79.223 83.649 C 79.091 83.465 78.999 83.322 78.944 83.226 C 78.79 82.959 78.882 82.62 79.144 82.465 L 79.32 82.361 C 79.575 82.209 79.902 82.283 80.066 82.527 L 80.117 82.609 Z" fill="#2990FB"/>
  <path d="M 84.075 92.054 C 84.078 92.07 84.081 92.088 84.084 92.108 L 84.109 92.232 C 84.127 92.32 84.148 92.415 84.174 92.519 C 84.285 92.972 84.445 93.475 84.663 94.015 C 84.88 94.551 85.111 95.017 85.34 95.41 C 85.42 95.546 85.494 95.663 85.559 95.761 L 85.631 95.865 C 85.823 96.118 85.77 96.468 85.523 96.652 L 85.36 96.774 C 85.116 96.957 84.769 96.913 84.581 96.669 L 84.541 96.615 C 84.462 96.506 84.359 96.35 84.232 96.137 L 84.176 96.042 C 84.028 95.787 83.88 95.504 83.733 95.192 L 83.69 95.1 L 78.652 97.135 C 78.368 97.25 78.041 97.116 77.925 96.829 L 77.85 96.644 L 77.839 96.613 C 77.744 96.334 77.886 96.029 78.16 95.918 L 83.2 93.882 C 83.061 93.483 82.953 93.11 82.871 92.767 L 82.842 92.64 C 82.792 92.419 82.764 92.251 82.75 92.141 C 82.713 91.835 82.93 91.56 83.232 91.519 L 83.434 91.492 C 83.728 91.452 84 91.648 84.056 91.937 L 84.075 92.054 Z" fill="#2990FB"/>
</svg>